<svg xmlns="http://www.w3.org/2000/svg" viewBox="0 0 99.35 99.35"><defs><style>.cls-1{fill:#e0dedf;}.cls-2{fill:#f9aa1a;}.cls-3{fill:#b4b5b4;}.cls-4{fill:#996a29;}</style></defs><g id="Layer_2" data-name="Layer 2"><g id="Layer_1-2" data-name="Layer 1"><polygon class="cls-1" points="0 0 99.35 0 99.35 99.35 0 0"/><rect class="cls-2" x="57.18" y="24.85" width="35.81" height="27.03" rx="3.95"/><path class="cls-3" d="M75,6.78A12.08,12.08,0,0,0,62.94,18.86v6h5.14l0-6h0a6.92,6.92,0,1,1,13.83,0h0l0,6H87.1v-6A12.08,12.08,0,0,0,75,6.78Z"/><path class="cls-4" d="M80.53,36.34a5.51,5.51,0,1,0-7.6,5.09v3s0,0,0,.05,0,0,0,0v.05h0a2.09,2.09,0,0,0,4.18,0h0V41.43A5.51,5.51,0,0,0,80.53,36.34Z"/><path d="M75.08,6.78A12.08,12.08,0,0,1,87.16,18.86v6H89.1a4,4,0,0,1,4,3.95V47.94a4,4,0,0,1-4,3.94H61.18a4,4,0,0,1-3.94-3.94V28.8a4,4,0,0,1,3.94-3.95H63v-6A12.08,12.08,0,0,1,75.08,6.78M68.15,24.85H82l0-6h0a6.92,6.92,0,1,0-13.83,0l0,6M75.08,5.46a13.41,13.41,0,0,0-13.39,13.4v4.68h-.51a5.27,5.27,0,0,0-5.26,5.26V47.94a5.27,5.27,0,0,0,5.26,5.26H89.1a5.27,5.27,0,0,0,5.27-5.26V28.8a5.27,5.27,0,0,0-5.27-5.26h-.62V18.86a13.41,13.41,0,0,0-13.4-13.4ZM69.47,23.54V18.86a5.6,5.6,0,0,1,11.2,0l0,4.68Z"/></g></g></svg>