<svg xmlns="http://www.w3.org/2000/svg" viewBox="0 0 16 13.35"><defs><style>.cls-1{fill:#333;}</style></defs><title>Asset 1</title><g id="Layer_2" data-name="Layer 2"><g id="Layer_1-2" data-name="Layer 1"><rect class="cls-1" x="4.07" y="4.01" width="7.85" height="5.31"/><path class="cls-1" d="M1.74,11.61H14.26V1.74H1.74Zm.87-9H13.39v8.13H2.61Z"/><polygon class="cls-1" points="0.87 9.27 0 9.27 0 13.35 4.08 13.35 4.08 12.47 0.87 12.47 0.87 9.27"/><polygon class="cls-1" points="15.13 12.47 11.93 12.47 11.93 13.34 16 13.34 16 9.27 15.13 9.27 15.13 12.47"/><polygon class="cls-1" points="11.93 0 11.93 0.87 15.13 0.87 15.13 4.07 16 4.07 16 0 11.93 0"/><polygon class="cls-1" points="0.87 0.87 4.07 0.87 4.07 0 0 0 0 4.07 0.87 4.07 0.87 0.87"/></g></g></svg>