<svg xmlns="http://www.w3.org/2000/svg" viewBox="0 0 87.69 108.88"><defs><style>.cls-1{fill:#f9aa1a;}.cls-2{fill:#b4b5b4;}.cls-3{fill:#996a29;}</style></defs><g id="Layer_2" data-name="Layer 2"><g id="Layer_1-2" data-name="Layer 1"><rect class="cls-1" x="2.86" y="44.23" width="81.69" height="61.65" rx="9"/><path class="cls-2" d="M43.71,3A27.54,27.54,0,0,0,16.16,30.55V44.23H27.88l.06-13.68h0a15.77,15.77,0,0,1,31.54,0h0l.05,13.68H71.26V30.55A27.55,27.55,0,0,0,43.71,3Z"/><path class="cls-3" d="M56.12,70.44A12.55,12.55,0,1,0,38.79,82v6.88s0,.07,0,.1,0,.07,0,.11v.13h0a4.77,4.77,0,0,0,9.53,0h0V82A12.56,12.56,0,0,0,56.12,70.44Z"/><path d="M43.71,3A27.55,27.55,0,0,1,71.26,30.55V44.23h4.43a9,9,0,0,1,9,9V96.88a9,9,0,0,1-9,9H12a9,9,0,0,1-9-9V53.23a9,9,0,0,1,9-9h4.16V30.55A27.54,27.54,0,0,1,43.71,3M27.88,44.23H59.53l-.05-13.68h0a15.77,15.77,0,0,0-31.54,0l-.06,13.68M43.71,0A30.58,30.58,0,0,0,13.16,30.55V41.23H12a12,12,0,0,0-12,12V96.88a12,12,0,0,0,12,12H75.69a12,12,0,0,0,12-12V53.23a12,12,0,0,0-12-12H74.26V30.55A30.59,30.59,0,0,0,43.71,0ZM30.89,41.23l.05-10.67a12.77,12.77,0,1,1,25.54,0l0,10.68Z"/></g></g></svg>