<svg id="Layer_1" data-name="Layer 1" xmlns="http://www.w3.org/2000/svg" viewBox="0 0 170.78 171.59"><defs><style>.cls-1{fill:#989898;}</style></defs><title>Artboard 1</title><circle class="cls-1" cx="85.8" cy="29.01" r="28.18"/><rect class="cls-1" x="0.44" y="152.33" width="170" height="18.82" rx="7.9" ry="7.9"/><path class="cls-1" d="M18.32,60.08a10.48,10.48,0,0,0,3.1,5.27,10.48,10.48,0,0,0,1.92,1.57L57.63,88.72v57.13h36.2a14.92,14.92,0,0,1,1.87-20.73L114,109.46v-14l11.52,9.86-27,23.09a10.49,10.49,0,0,0-3.42,5.7q-.11.5-.17,1a10.7,10.7,0,0,0-.06,2q0,.51.11,1,0,.25.09.5.11.5.26,1a10.46,10.46,0,0,0,2,3.66q.35.4.72.76h0q.38.36.78.68h0a10.61,10.61,0,0,0,12.85.12l0,0,.49-.39,36.48-31h0a10.53,10.53,0,0,0,1.12-1.13h0a10.59,10.59,0,0,0-1.16-14.89l-36.46-31.2A10.48,10.48,0,0,0,110,64.71a7.83,7.83,0,0,0-3.89-1H57.59L37.89,51.14,27.63,8.48A10.56,10.56,0,0,0,7.09,13.42Z"/></svg>