<svg xmlns="http://www.w3.org/2000/svg" viewBox="0 0 117.81 108.88"><defs><style>.cls-1{fill:#f9aa1a;}.cls-2{fill:#996a29;}.cls-3{fill:#b4b5b4;}</style></defs><g id="Layer_2" data-name="Layer 2"><g id="Layer_1-2" data-name="Layer 1"><rect class="cls-1" x="33.12" y="44.23" width="81.69" height="61.65" rx="9"/><path class="cls-2" d="M86.38,70.44A12.55,12.55,0,1,0,69.05,82v6.88s0,.07,0,.1,0,.07,0,.11v.13h0a4.77,4.77,0,0,0,9.53,0h0V82A12.55,12.55,0,0,0,86.38,70.44Z"/><path class="cls-3" d="M30.55,3A27.54,27.54,0,0,0,3,30.55V34.4H3a5.89,5.89,0,0,0,11.77,0h0V30.55a15.77,15.77,0,0,1,31.54,0h0l.06,13.68H58.1V30.55A27.54,27.54,0,0,0,30.55,3Z"/><path d="M105.81,41.23H61.1V30.55a30.55,30.55,0,0,0-61.1,0v3.17a8.88,8.88,0,0,0,17.76-.32V30.56a12.77,12.77,0,1,1,25.54,0l0,10.68H42.12a12,12,0,0,0-12,12V96.88a12,12,0,0,0,12,12h63.69a12,12,0,0,0,12-12V53.23A12,12,0,0,0,105.81,41.23Zm9,55.65a9,9,0,0,1-9,9H42.12a9,9,0,0,1-9-9V53.23a9,9,0,0,1,9-9h4.26l-.06-13.68h0a15.77,15.77,0,0,0-31.54,0V33.4h0A5.89,5.89,0,0,1,3,33.4H3V30.55a27.55,27.55,0,0,1,55.1,0V44.23h47.71a9,9,0,0,1,9,9Z"/></g></g></svg>